<?xml version="1.0" encoding="UTF-8"?>
<svg version="1.1" xmlns="http://www.w3.org/2000/svg" width="125" height="141">
<path d="M0 0 C41.25 0 82.5 0 125 0 C125 46.53 125 93.06 125 141 C83.75 141 42.5 141 0 141 C0 94.47 0 47.94 0 0 Z " fill="#FDFDFD" transform="translate(0,0)"/>
<path d="M0 0 C2.48380473 1.89072389 4.71485723 3.86388828 7 6 C3.19524578 10.56030824 -0.74969621 14.85089392 -5 19 C-8.18416946 17.47159866 -11.1958838 15.72293362 -14.21875 13.90234375 C-18.56778901 11.69921215 -23.02193045 11.7853874 -27.8125 11.75 C-28.49892578 11.729375 -29.18535156 11.70875 -29.89257812 11.6875 C-37.40658502 11.63062956 -43.00221213 14.46833805 -49 19 C-55.51430943 26.25880194 -58.49748976 33.6821629 -58.24609375 43.45703125 C-57.49395553 51.22912619 -54.08280952 58.11764741 -49 64 C-40.6598533 70.84191676 -31.5177238 71.95930887 -21 71 C-15.63861309 69.57916248 -11.34461333 67.43047523 -7 64 C-3.09714233 65.58667578 -0.66479018 68.13350481 2.25 71.125 C3.14203125 72.03507812 4.0340625 72.94515625 4.953125 73.8828125 C5.62859375 74.58148438 6.3040625 75.28015625 7 76 C-0.14231188 83.35093611 -7.32079473 86.81008421 -17 90 C-17.99 90.33 -18.98 90.66 -20 91 C-34.86918045 92.13661655 -46.90199969 89.03235057 -59 80 C-70.21922083 70.31067292 -76.12208215 58.31981949 -77.2578125 43.67578125 C-77.74753815 28.83709396 -72.48505177 16.66510545 -62.5 5.8125 C-45.32959771 -10.65759888 -20.06304206 -12.43148905 0 0 Z " fill="#131B5F" transform="translate(95,28)"/>
<path d="M0 0 C2.1875 1.09765625 2.1875 1.09765625 5.375 3.09765625 C4.79808522 6.26620372 3.95853113 7.87992084 1.65234375 10.11328125 C1.11416016 10.64179687 0.57597656 11.1703125 0.02148438 11.71484375 C-0.54248047 12.25367188 -1.10644531 12.7925 -1.6875 13.34765625 C-2.25533203 13.90195313 -2.82316406 14.45625 -3.40820312 15.02734375 C-4.80712469 16.39099839 -6.21519114 17.74526042 -7.625 19.09765625 C-11.36367071 15.96938076 -15.05769846 12.79591704 -18.625 9.47265625 C-19.223125 8.92351563 -19.82125 8.374375 -20.4375 7.80859375 C-21.625 6.09765625 -21.625 6.09765625 -21.625 4.07421875 C-17.91931211 -3.25030497 -6.61257627 -2.27307309 0 0 Z " fill="#FC2D07" transform="translate(75.625,50.90234375)"/>
</svg>
